<svg id="Capa_1"  fill="#c40c0c" height="512" viewBox="0 0 511.505 511.505" width="512" xmlns="http://www.w3.org/2000/svg"><path d="m373.63 379.368 126.953-86.697-43.335-24.875 40.532-79.838-87.534 18.833-12.554-46.58-57.779 43.501 26.852-127.599-62.421 25.894-48.591-102.007-48.591 102.006-62.421-25.894 26.852 127.599-57.779-43.501-12.554 46.58-87.534-18.833 40.532 79.838-43.335 24.875 126.953 86.697-33.772 47.283h136.649v84.854h30v-84.854h136.649zm-102.877 17.283v-15.686l85.791-65.751-18.25-23.812-67.541 51.764v-129.166h-30v129.167l-67.541-51.764-18.25 23.812 85.791 65.751v15.686h-78.354l17.698-24.778-112.752-76.999 26.563-15.248-24.923-49.093 53.825 11.581 8.419-31.239 86.182 64.885-31.592-150.128 36.171 15.005 33.763-70.877 33.763 70.877 36.171-15.005-31.593 150.127 86.182-64.885 8.419 31.239 53.825-11.581-24.923 49.093 26.563 15.248-112.751 76.999 17.698 24.778z"/></svg>